:SAMPLES-PER-SECOND 30
:FULLY-SPECIFIED
:DEGREES
1
root  -61.1644 18.8092 3.25896 92.8582 78.8764 40.0365
RightUpLeg  -30.4149 24.8852 1.92179
RightLeg  84.0262 10.339 -10.8463
RightFoot  -21.0869 -1.19969 -17.0249
RightToes  -7.56701e-010 -1.59028e-015 9.93923e-017
Spine  62.174 2.7323 1.11999
Spine1  -16.9575 4.11818 -16.7296
HEad  -53.5408 -14.7263 11.0449
LeftShoulder1  9.93923e-017 0 1.22299e-017
LeftArm  4.8128 -16.2728 -76.7924
LeftForeArm  -112.181 -67.9973 137.869
LeftHand  0.562907 5.84239 21.4457
RightShoulder  1.98785e-016 -4.96962e-017 1.55301e-017
RightArm  -2.91063 31.4509 66.8713
RightForeArm  -55.807 60.4738 -111.649
RightHand  1.78114 -16.5461 -2.69093
LeftUpLeg  -79.2621 5.98644 4.50673
LeftLeg  127.405 -2.37436 -15.4703
LeftFoot  -20.4788 0.410422 7.60495
LeftToes  1.17689e-009 -8.96121e-011 5.75302e-011
2
root  -60.6749 18.7586 2.98454 87.9563 80.1402 37.2954
RightUpLeg  -26.0729 24.8484 4.19883
RightLeg  81.9857 9.8751 -11.4786
RightFoot  -20.7363 -1.10541 -16.4298
RightToes  -7.56701e-010 -1.59028e-015 9.93923e-017
Spine  64.625 1.86919 3.11934
Spine1  -17.6458 4.49898 -17.6275
HEad  -53.181 -14.9199 10.0464
LeftShoulder1  9.93923e-017 0 1.22299e-017
LeftArm  3.2833 -18.568 -75.4056
LeftForeArm  -113.445 -68.2907 137.168
LeftHand  0.593481 5.95122 22.0068
RightShoulder  1.98785e-016 -4.96962e-017 1.55301e-017
RightArm  -0.0867798 28.4209 69.3989
RightForeArm  -57.5101 59.8891 -116.388
RightHand  1.81801 -16.9149 -2.61195
LeftUpLeg  -77.793 4.82531 5.85419
LeftLeg  127.297 -2.39694 -15.4949
LeftFoot  -17.9782 0.229387 6.94173
LeftToes  1.17689e-009 -8.96121e-011 5.75302e-011
3
root  -59.8411 18.435 2.5226 77.461 79.7142 26.6266
RightUpLeg  -23.8475 25.2251 3.485
RightLeg  79.9192 9.35596 -12.0746
RightFoot  -20.7242 -1.03554 -15.4127
RightToes  -7.56701e-010 -1.59028e-015 9.93923e-017
Spine  64.4008 2.67846 3.57363
Spine1  -18.5497 5.33583 -17.04
HEad  -52.6887 -15.4039 8.21446
LeftShoulder1  9.93923e-017 0 1.22299e-017
LeftArm  1.07014 -24.0912 -73.192
LeftForeArm  -113.618 -69.1594 134.239
LeftHand  0.626275 6.05327 22.225
RightShoulder  1.98785e-016 -4.96962e-017 1.55301e-017
RightArm  4.57492 23.4997 72.8286
RightForeArm  -59.6545 58.7096 -123.032
RightHand  1.99017 -17.7902 -3.26594
LeftUpLeg  -77.6498 3.37336 5.26299
LeftLeg  127.345 -2.64777 -15.1603
LeftFoot  -13.5586 -0.0316331 5.40319
LeftToes  1.17689e-009 -8.96121e-011 5.75302e-011
4
root  -58.9217 18.1006 1.97594 67.0326 79.6993 15.6565
RightUpLeg  -21.8394 25.5336 3.21196
RightLeg  77.3028 8.69089 -12.4244
RightFoot  -19.8209 -0.873713 -14.7745
RightToes  -7.56701e-010 -1.59028e-015 9.93923e-017
Spine  64.5203 3.53645 4.31937
Spine1  -20.4363 6.35005 -16.1125
HEad  -51.8967 -15.6361 5.98729
LeftShoulder1  9.93923e-017 0 1.22299e-017
LeftArm  -0.946541 -31.6508 -71.1919
LeftForeArm  -108.343 -70.4645 127.711
LeftHand  0.70461 6.24699 20.8866
RightShoulder  1.98785e-016 -4.96962e-017 1.55301e-017
RightArm  9.61057 17.8245 75.9575
RightForeArm  -60.4936 57.292 -128.811
RightHand  2.27746 -18.7642 -4.74665
LeftUpLeg  -76.1925 1.60916 5.1961
LeftLeg  127.308 -3.20994 -14.4756
LeftFoot  -10.4651 -0.130779 3.83885
LeftToes  1.17689e-009 -8.96121e-011 5.75302e-011
5
root  -58.0723 17.8896 1.46242 62.5434 80.037 10.0433
RightUpLeg  -20.8127 25.0385 2.68212
RightLeg  74.4466 8.02287 -12.2678
RightFoot  -18.2639 -0.661941 -14.574
RightToes  -7.56701e-010 -1.59028e-015 9.93923e-017
Spine  64.9215 4.36128 4.36552
Spine1  -23.4346 6.86208 -13.5453
HEad  -50.3982 -14.6608 3.3301
LeftShoulder1  9.93923e-017 0 1.22299e-017
LeftArm  -3.35688 -40.1118 -68.9337
LeftForeArm  -95.9834 -72.052 114.442
LeftHand  0.760249 6.3792 19.5907
RightShoulder  1.98785e-016 -4.96962e-017 1.55301e-017
RightArm  14.7126 12.2797 78.9033
RightForeArm  -59.79 55.9814 -133.04
RightHand  2.53126 -19.4317 -6.10387
LeftUpLeg  -75.1339 -0.158537 4.27816
LeftLeg  126.673 -4.47946 -13.1311
LeftFoot  -8.44939 -0.165388 3.20274
LeftToes  1.17689e-009 -8.96121e-011 5.75302e-011
6
root  -57.2129 17.8044 0.99487 69.7273 80.4918 15.9464
RightUpLeg  -20.132 22.6789 1.06324
RightLeg  71.3233 7.51158 -11.299
RightFoot  -16.7914 -0.448309 -13.8106
RightToes  -7.56701e-010 -1.59028e-015 9.93923e-017
Spine  65.6441 4.97714 3.33873
Spine1  -26.9406 6.66199 -8.25811
HEad  -48.6832 -12.5253 0.40301
LeftShoulder1  9.93923e-017 0 1.22299e-017
LeftArm  -7.01195 -49.1904 -65.5696
LeftForeArm  -76.0723 -72.5165 89.8034
LeftHand  0.626843 6.02102 20.8622
RightShoulder  1.98785e-016 -4.96962e-017 1.55301e-017
RightArm  19.6685 7.34693 81.042
RightForeArm  -59.5135 54.6358 -136.82
RightHand  2.63755 -19.7707 -6.54971
LeftUpLeg  -74.9482 -2.51118 1.63435
LeftLeg  125.647 -6.35688 -11.0303
LeftFoot  -6.46321 -0.281787 4.28102
LeftToes  1.17689e-009 -8.96121e-011 5.75302e-011
7
root  -56.2586 17.7528 0.529192 86.0846 80.3901 31.0504
RightUpLeg  -19.4236 18.6872 -1.62783
RightLeg  68.222 7.61969 -8.78837
RightFoot  -14.5385 -0.154817 -11.9467
RightToes  -7.56701e-010 -1.59028e-015 9.93923e-017
Spine  65.7903 5.06826 1.8607
Spine1  -27.7029 5.93267 -1.60786
HEad  -49.481 -10.2927 -1.79111
LeftShoulder1  9.93923e-017 0 1.22299e-017
LeftArm  -14.6961 -59.2306 -57.611
LeftForeArm  -55.4801 -68.4716 60.5285
LeftHand  0.446865 5.56151 22.9777
RightShoulder  1.98785e-016 -4.96962e-017 1.55301e-017
RightArm  23.7199 4.79954 81.7646
RightForeArm  -60.9295 52.9123 -141.048
RightHand  2.63726 -19.9777 -6.28423
LeftUpLeg  -74.3638 -5.6923 -2.1172
LeftLeg  124.48 -8.30449 -8.66811
LeftFoot  -5.33501 -0.476547 6.55746
LeftToes  1.17689e-009 -8.96121e-011 5.75302e-011
8
root  -55.2914 17.7273 0.03124 100.442 79.8068 43.915
RightUpLeg  -19.4817 14.8224 -4.40791
RightLeg  66.0831 8.88756 -4.32864
RightFoot  -10.1339 0.238864 -9.4664
RightToes  -7.56701e-010 -1.59028e-015 9.93923e-017
Spine  63.6089 4.33799 0.791424
Spine1  -20.8316 4.63719 3.29486
HEad  -56.194 -8.5995 -1.94902
LeftShoulder1  9.93923e-017 0 1.22299e-017
LeftArm  -38.5808 -70.8248 -32.5722
LeftForeArm  -43.7638 -59.9979 41.5363
LeftHand  0.561749 5.86202 21.5199
RightShoulder  1.98785e-016 -4.96962e-017 1.55301e-017
RightArm  25.3811 8.42704 81.2251
RightForeArm  -63.3119 51.1784 -144.763
RightHand  2.63513 -20.2125 -5.97957
LeftUpLeg  -72.9693 -9.00182 -5.11358
LeftLeg  122.748 -9.6932 -7.00817
LeftFoot  -5.8182 -0.568341 8.2982
LeftToes  1.17689e-009 -8.96121e-011 5.75302e-011
9
root  -54.4138 17.8301 -0.499155 107.746 79.8085 49.4202
RightUpLeg  -21.164 12.3384 -6.45177
RightLeg  65.841 10.8754 0.840095
RightFoot  -5.30545 0.451818 -6.60417
RightToes  -7.56701e-010 -1.59028e-015 9.93923e-017
Spine  63.2536 4.29106 0.748418
Spine1  -19.4611 4.6079 5.25615
HEad  -59.2459 -9.03442 -2.2521
LeftShoulder1  9.93923e-017 0 1.22299e-017
LeftArm  -64.8056 -75.5555 -6.12438
LeftForeArm  -34.9421 -52.1622 33.0479
LeftHand  0.825907 6.52766 16.5263
RightShoulder  1.98785e-016 -4.96962e-017 1.55301e-017
RightArm  25.2488 9.41629 78.6819
RightForeArm  -66.3065 49.5479 -147.887
RightHand  2.58183 -20.1818 -5.5913
LeftUpLeg  -71.8468 -11.7417 -6.21439
LeftLeg  120.046 -10.261 -6.59629
LeftFoot  -6.78383 -0.507987 8.40184
LeftToes  1.17689e-009 -8.96121e-011 5.75302e-011
10
root  -53.5717 18.0782 -1.06071 109.603 80.829 49.564
RightUpLeg  -24.1838 10.4139 -7.62276
RightLeg  67.656 12.2696 4.58311
RightFoot  -3.59431 0.325229 -3.81672
RightToes  -7.56701e-010 -1.59028e-015 9.93923e-017
Spine  64.2297 4.50938 1.72816
Spine1  -21.4599 5.75716 5.1141
HEad  -59.639 -10.0657 -2.57248
LeftShoulder1  9.93923e-017 0 1.22299e-017
LeftArm  -78.2594 -77.857 5.50569
LeftForeArm  -26.9753 -49.0253 30.905
LeftHand  0.952387 6.92819 12.6584
RightShoulder  1.98785e-016 -4.96962e-017 1.55301e-017
RightArm  24.357 7.83587 75.4703
RightForeArm  -67.8181 47.9142 -150.608
RightHand  2.43191 -19.637 -5.01082
LeftUpLeg  -71.0716 -13.5825 -5.98317
LeftLeg  116.8 -10.545 -6.66489
LeftFoot  -7.4326 -0.413714 7.49369
LeftToes  1.17689e-009 -8.96121e-011 5.75302e-011
11
root  -52.6446 18.3767 -1.64247 106.978 82.4433 45.5832
RightUpLeg  -27.834 7.61006 -8.24414
RightLeg  71.1137 12.4165 5.77601
RightFoot  -5.03112 0.17047 -2.43002
RightToes  -7.56701e-010 -1.59028e-015 9.93923e-017
Spine  65.2363 4.53463 3.02051
Spine1  -22.537 6.81547 4.41824
HEad  -60.3178 -9.98892 -2.34632
LeftShoulder1  9.93923e-017 0 1.22299e-017
LeftArm  -83.2871 -79.6659 7.51562
LeftForeArm  -23.0982 -51.0349 32.9007
LeftHand  1.29265 8.30679 11.3514
RightShoulder  1.98785e-016 -4.96962e-017 1.55301e-017
RightArm  22.6187 6.7027 72.9968
RightForeArm  -67.7231 46.7152 -152.385
RightHand  2.28052 -18.6086 -4.97433
LeftUpLeg  -69.4916 -14.3977 -5.75002
LeftLeg  113.438 -11.2041 -5.90822
LeftFoot  -8.17615 -0.336891 6.84268
LeftToes  1.17689e-009 -8.96121e-011 5.75302e-011
12
root  -51.6697 18.6218 -2.21759 98.6809 84.1576 36.2068
RightUpLeg  -31.935 3.89784 -8.47809
RightLeg  75.9309 11.7723 4.78039
RightFoot  -7.02599 0.158485 -3.0088
RightToes  -7.56701e-010 -1.59028e-015 9.93923e-017
Spine  65.9579 4.40731 4.02451
Spine1  -22.7704 7.39178 3.91466
HEad  -61.2236 -8.89021 -1.99229
LeftShoulder1  9.93923e-017 0 1.22299e-017
LeftArm  -80.7969 -81.1507 2.58213
LeftForeArm  -23.0013 -55.3649 37.443
LeftHand  1.96333 11.2647 10.0108
RightShoulder  1.98785e-016 -4.96962e-017 1.55301e-017
RightArm  20.2818 5.97194 71.712
RightForeArm  -66.5659 46.5115 -152.63
RightHand  2.29427 -17.5375 -6.618
LeftUpLeg  -67.0226 -14.4484 -5.81318
LeftLeg  110.027 -12.0573 -4.36792
LeftFoot  -9.27323 -0.269927 6.71474
LeftToes  1.17689e-009 -8.96121e-011 5.75302e-011
13
root  -50.7731 18.7906 -2.7566 83.6925 85.6733 20.2917
RightUpLeg  -36.6524 0.358966 -8.25323
RightLeg  81.9614 11.155 3.02002
RightFoot  -8.513 0.172648 -4.30807
RightToes  -7.56701e-010 -1.59028e-015 9.93923e-017
Spine  65.9701 4.20379 4.66326
Spine1  -22.4694 7.62286 3.5951
HEad  -61.6649 -7.74997 -2.19397
LeftShoulder1  9.93923e-017 0 1.22299e-017
LeftArm  -74.8369 -81.8195 -3.80938
LeftForeArm  -23.5083 -58.7087 41.9309
LeftHand  2.43842 13.923 7.48627
RightShoulder  1.98785e-016 -4.96962e-017 1.55301e-017
RightArm  17.8545 5.2117 71.1742
RightForeArm  -65.3829 47.5991 -150.988
RightHand  2.525 -16.9217 -9.9999
LeftUpLeg  -64.8064 -14.4855 -5.39166
LeftLeg  106.781 -12.4781 -3.51648
LeftFoot  -10.1529 -0.21585 6.53835
LeftToes  1.17689e-009 -8.96121e-011 5.75302e-011
